<svg xmlns="http://www.w3.org/2000/svg" xmlns:xlink="http://www.w3.org/1999/xlink" width="500" zoomAndPan="magnify" viewBox="0 0 375 374.999991" height="500" preserveAspectRatio="xMidYMid meet" version="1.0"><defs><g/><clipPath id="5c2b434f35"><path d="M 108.015625 52.261719 L 266.984375 52.261719 L 266.984375 231 L 108.015625 231 Z M 108.015625 52.261719 " clip-rule="nonzero"/></clipPath><clipPath id="3c82142f72"><path d="M 187.5 52.261719 L 266.984375 96.933594 L 266.984375 186.28125 L 187.5 230.957031 L 108.015625 186.28125 L 108.015625 96.933594 Z M 187.5 52.261719 " clip-rule="nonzero"/></clipPath><clipPath id="c14ef61ba2"><path d="M 135 66.609375 L 240 66.609375 L 240 127 L 135 127 Z M 135 66.609375 " clip-rule="nonzero"/></clipPath><clipPath id="90773fd658"><path d="M 135 156 L 240 156 L 240 216.609375 L 135 216.609375 Z M 135 156 " clip-rule="nonzero"/></clipPath></defs><g clip-path="url(#5c2b434f35)"><g clip-path="url(#3c82142f72)"><path fill="#cb6ce6" d="M 108.015625 52.261719 L 266.984375 52.261719 L 266.984375 231.105469 L 108.015625 231.105469 Z M 108.015625 52.261719 " fill-opacity="1" fill-rule="nonzero"/></g></g><g clip-path="url(#c14ef61ba2)"><path fill="#ffffff" d="M 240 96.609375 L 240 126.609375 L 187.5 96.609375 L 135 126.609375 L 135 96.609375 L 187.5 66.609375 Z M 240 96.609375 " fill-opacity="1" fill-rule="evenodd"/></g><g clip-path="url(#90773fd658)"><path fill="#ffffff" d="M 240 156.609375 L 240 186.609375 L 187.5 216.609375 L 135 186.609375 L 135 156.609375 L 187.5 186.609375 Z M 240 156.609375 " fill-opacity="1" fill-rule="evenodd"/></g><path fill="#5ce1e6" d="M 187.5 96.609375 L 161.25 111.609375 L 240 156.609375 L 240 171.609375 L 187.5 201.609375 L 135 171.609375 L 135 156.609375 L 187.5 186.609375 L 213.75 171.609375 L 135 126.609375 L 135 111.609375 L 187.5 81.609375 L 240 111.609375 L 240 126.609375 Z M 187.5 96.609375 " fill-opacity="1" fill-rule="evenodd"/><g fill="#cb6ce6" fill-opacity="1"><g transform="translate(77.440428, 272.274107)"><g><path d="M 20.671875 -8.234375 C 20.671875 -6.554688 20.242188 -5.0625 19.390625 -3.75 C 18.535156 -2.445312 17.300781 -1.429688 15.6875 -0.703125 C 14.082031 0.015625 12.195312 0.375 10.03125 0.375 C 8.226562 0.375 6.710938 0.25 5.484375 0 C 4.265625 -0.257812 2.992188 -0.707031 1.671875 -1.34375 L 1.671875 -7.875 C 3.066406 -7.15625 4.519531 -6.59375 6.03125 -6.1875 C 7.539062 -5.78125 8.925781 -5.578125 10.1875 -5.578125 C 11.269531 -5.578125 12.066406 -5.765625 12.578125 -6.140625 C 13.085938 -6.523438 13.34375 -7.015625 13.34375 -7.609375 C 13.34375 -7.984375 13.238281 -8.304688 13.03125 -8.578125 C 12.832031 -8.859375 12.503906 -9.140625 12.046875 -9.421875 C 11.597656 -9.710938 10.394531 -10.296875 8.4375 -11.171875 C 6.675781 -11.972656 5.351562 -12.75 4.46875 -13.5 C 3.582031 -14.257812 2.925781 -15.128906 2.5 -16.109375 C 2.070312 -17.085938 1.859375 -18.242188 1.859375 -19.578125 C 1.859375 -22.078125 2.765625 -24.023438 4.578125 -25.421875 C 6.398438 -26.816406 8.898438 -27.515625 12.078125 -27.515625 C 14.890625 -27.515625 17.753906 -26.863281 20.671875 -25.5625 L 18.421875 -19.90625 C 15.890625 -21.070312 13.703125 -21.65625 11.859375 -21.65625 C 10.898438 -21.65625 10.203125 -21.488281 9.765625 -21.15625 C 9.335938 -20.820312 9.125 -20.40625 9.125 -19.90625 C 9.125 -19.375 9.398438 -18.894531 9.953125 -18.46875 C 10.503906 -18.050781 12 -17.289062 14.4375 -16.1875 C 16.769531 -15.132812 18.390625 -14.003906 19.296875 -12.796875 C 20.210938 -11.585938 20.671875 -10.066406 20.671875 -8.234375 Z M 20.671875 -8.234375 "/></g></g></g><g fill="#cb6ce6" fill-opacity="1"><g transform="translate(103.12956, 272.274107)"><g><path d="M 26 -27.125 L 26 -10.796875 C 26 -7.242188 24.992188 -4.492188 22.984375 -2.546875 C 20.972656 -0.597656 18.070312 0.375 14.28125 0.375 C 10.582031 0.375 7.738281 -0.570312 5.75 -2.46875 C 3.769531 -4.363281 2.78125 -7.082031 2.78125 -10.625 L 2.78125 -27.125 L 10.15625 -27.125 L 10.15625 -11.203125 C 10.15625 -9.285156 10.507812 -7.894531 11.21875 -7.03125 C 11.9375 -6.164062 13 -5.734375 14.40625 -5.734375 C 15.894531 -5.734375 16.976562 -6.160156 17.65625 -7.015625 C 18.332031 -7.878906 18.671875 -9.289062 18.671875 -11.25 L 18.671875 -27.125 Z M 26 -27.125 "/></g></g></g><g fill="#cb6ce6" fill-opacity="1"><g transform="translate(135.645413, 272.274107)"><g><path d="M 2.9375 0 L 2.9375 -27.125 L 10.265625 -27.125 L 10.265625 -5.921875 L 20.703125 -5.921875 L 20.703125 0 Z M 2.9375 0 "/></g></g></g><g fill="#cb6ce6" fill-opacity="1"><g transform="translate(161.52005, 272.274107)"><g><path d="M 2.9375 0 L 2.9375 -27.125 L 10.265625 -27.125 L 10.265625 -5.921875 L 20.703125 -5.921875 L 20.703125 0 Z M 2.9375 0 "/></g></g></g><g fill="#cb6ce6" fill-opacity="1"><g transform="translate(187.394694, 272.274107)"><g><path d="M 2.9375 0 L 2.9375 -27.125 L 10.296875 -27.125 L 10.296875 0 Z M 2.9375 0 "/></g></g></g><g fill="#cb6ce6" fill-opacity="1"><g transform="translate(204.38347, 272.274107)"><g><path d="M 18.171875 -27.125 L 26.359375 -27.125 L 17.484375 0 L 8.84375 0 L 0 -27.125 L 8.234375 -27.125 L 11.9375 -13.375 C 12.695312 -10.320312 13.113281 -8.195312 13.1875 -7 C 13.28125 -7.863281 13.457031 -8.941406 13.71875 -10.234375 C 13.976562 -11.535156 14.207031 -12.554688 14.40625 -13.296875 Z M 18.171875 -27.125 "/></g></g></g><g fill="#cb6ce6" fill-opacity="1"><g transform="translate(234.506263, 272.274107)"><g><path d="M 19.578125 0 L 18.234375 -5.078125 L 9.421875 -5.078125 L 8.046875 0 L 0 0 L 8.84375 -27.234375 L 18.625 -27.234375 L 27.59375 0 Z M 16.71875 -11.09375 L 15.546875 -15.546875 C 15.273438 -16.535156 14.941406 -17.816406 14.546875 -19.390625 C 14.160156 -20.960938 13.90625 -22.085938 13.78125 -22.765625 C 13.675781 -22.140625 13.457031 -21.101562 13.125 -19.65625 C 12.800781 -18.207031 12.078125 -15.351562 10.953125 -11.09375 Z M 16.71875 -11.09375 "/></g></g></g><g fill="#cb6ce6" fill-opacity="1"><g transform="translate(265.853414, 272.274107)"><g><path d="M 28.765625 0 L 19.15625 0 L 9.234375 -19.109375 L 9.078125 -19.109375 C 9.304688 -16.109375 9.421875 -13.816406 9.421875 -12.234375 L 9.421875 0 L 2.9375 0 L 2.9375 -27.125 L 12.5 -27.125 L 22.375 -8.28125 L 22.484375 -8.28125 C 22.316406 -11.007812 22.234375 -13.203125 22.234375 -14.859375 L 22.234375 -27.125 L 28.765625 -27.125 Z M 28.765625 0 "/></g></g></g><g fill="#5ce1e6" fill-opacity="1"><g transform="translate(64.847418, 297.956172)"><g><path d="M 16.15625 -8.796875 C 16.15625 -5.984375 15.378906 -3.8125 13.828125 -2.28125 C 12.273438 -0.757812 10.09375 0 7.28125 0 L 1.828125 0 L 1.828125 -16.890625 L 7.671875 -16.890625 C 10.378906 -16.890625 12.46875 -16.195312 13.9375 -14.8125 C 15.414062 -13.425781 16.15625 -11.421875 16.15625 -8.796875 Z M 11.421875 -8.640625 C 11.421875 -10.191406 11.113281 -11.335938 10.5 -12.078125 C 9.894531 -12.828125 8.96875 -13.203125 7.71875 -13.203125 L 6.390625 -13.203125 L 6.390625 -3.75 L 7.40625 -3.75 C 8.789062 -3.75 9.804688 -4.148438 10.453125 -4.953125 C 11.097656 -5.753906 11.421875 -6.984375 11.421875 -8.640625 Z M 11.421875 -8.640625 "/></g></g></g><g fill="#5ce1e6" fill-opacity="1"><g transform="translate(89.049869, 297.956172)"><g><path d="M 11.84375 0 L 1.828125 0 L 1.828125 -16.890625 L 11.84375 -16.890625 L 11.84375 -13.21875 L 6.390625 -13.21875 L 6.390625 -10.5625 L 11.453125 -10.5625 L 11.453125 -6.90625 L 6.390625 -6.90625 L 6.390625 -3.71875 L 11.84375 -3.71875 Z M 11.84375 0 "/></g></g></g><g fill="#5ce1e6" fill-opacity="1"><g transform="translate(108.873798, 297.956172)"><g><path d="M 11.3125 -16.890625 L 16.40625 -16.890625 L 10.875 0 L 5.515625 0 L 0 -16.890625 L 5.125 -16.890625 L 7.421875 -8.328125 C 7.898438 -6.421875 8.164062 -5.097656 8.21875 -4.359375 C 8.269531 -4.890625 8.375 -5.5625 8.53125 -6.375 C 8.695312 -7.1875 8.84375 -7.820312 8.96875 -8.28125 Z M 11.3125 -16.890625 "/></g></g></g><g fill="#5ce1e6" fill-opacity="1"><g transform="translate(132.128918, 297.956172)"><g><path d="M 11.84375 0 L 1.828125 0 L 1.828125 -16.890625 L 11.84375 -16.890625 L 11.84375 -13.21875 L 6.390625 -13.21875 L 6.390625 -10.5625 L 11.453125 -10.5625 L 11.453125 -6.90625 L 6.390625 -6.90625 L 6.390625 -3.71875 L 11.84375 -3.71875 Z M 11.84375 0 "/></g></g></g><g fill="#5ce1e6" fill-opacity="1"><g transform="translate(151.952848, 297.956172)"><g><path d="M 1.828125 0 L 1.828125 -16.890625 L 6.390625 -16.890625 L 6.390625 -3.6875 L 12.890625 -3.6875 L 12.890625 0 Z M 1.828125 0 "/></g></g></g><g fill="#5ce1e6" fill-opacity="1"><g transform="translate(172.562362, 297.956172)"><g><path d="M 17.625 -8.46875 C 17.625 -5.625 16.925781 -3.460938 15.53125 -1.984375 C 14.132812 -0.503906 12.09375 0.234375 9.40625 0.234375 C 6.757812 0.234375 4.726562 -0.507812 3.3125 -2 C 1.90625 -3.488281 1.203125 -5.648438 1.203125 -8.484375 C 1.203125 -11.296875 1.90625 -13.441406 3.3125 -14.921875 C 4.71875 -16.410156 6.757812 -17.15625 9.4375 -17.15625 C 12.125 -17.15625 14.160156 -16.414062 15.546875 -14.9375 C 16.929688 -13.46875 17.625 -11.3125 17.625 -8.46875 Z M 6 -8.46875 C 6 -5.195312 7.132812 -3.5625 9.40625 -3.5625 C 10.5625 -3.5625 11.421875 -3.957031 11.984375 -4.75 C 12.546875 -5.550781 12.828125 -6.789062 12.828125 -8.46875 C 12.828125 -10.15625 12.539062 -11.398438 11.96875 -12.203125 C 11.40625 -13.003906 10.5625 -13.40625 9.4375 -13.40625 C 7.144531 -13.40625 6 -11.757812 6 -8.46875 Z M 6 -8.46875 "/></g></g></g><g fill="#5ce1e6" fill-opacity="1"><g transform="translate(198.255125, 297.956172)"><g><path d="M 14.078125 -11.515625 C 14.078125 -9.628906 13.519531 -8.171875 12.40625 -7.140625 C 11.300781 -6.117188 9.722656 -5.609375 7.671875 -5.609375 L 6.390625 -5.609375 L 6.390625 0 L 1.828125 0 L 1.828125 -16.890625 L 7.671875 -16.890625 C 9.804688 -16.890625 11.40625 -16.421875 12.46875 -15.484375 C 13.539062 -14.554688 14.078125 -13.234375 14.078125 -11.515625 Z M 6.390625 -9.328125 L 7.21875 -9.328125 C 7.90625 -9.328125 8.445312 -9.519531 8.84375 -9.90625 C 9.25 -10.289062 9.453125 -10.820312 9.453125 -11.5 C 9.453125 -12.632812 8.820312 -13.203125 7.5625 -13.203125 L 6.390625 -13.203125 Z M 6.390625 -9.328125 "/></g></g></g><g fill="#5ce1e6" fill-opacity="1"><g transform="translate(220.043026, 297.956172)"><g><path d="M 9.1875 0 L 5.734375 -12.15625 L 5.625 -12.15625 C 5.789062 -10.09375 5.875 -8.484375 5.875 -7.328125 L 5.875 0 L 1.828125 0 L 1.828125 -16.890625 L 7.90625 -16.890625 L 11.421875 -4.890625 L 11.515625 -4.890625 L 14.96875 -16.890625 L 21.0625 -16.890625 L 21.0625 0 L 16.859375 0 L 16.859375 -7.40625 C 16.859375 -7.789062 16.863281 -8.21875 16.875 -8.6875 C 16.894531 -9.15625 16.945312 -10.304688 17.03125 -12.140625 L 16.9375 -12.140625 L 13.53125 0 Z M 9.1875 0 "/></g></g></g><g fill="#5ce1e6" fill-opacity="1"><g transform="translate(249.756167, 297.956172)"><g><path d="M 11.84375 0 L 1.828125 0 L 1.828125 -16.890625 L 11.84375 -16.890625 L 11.84375 -13.21875 L 6.390625 -13.21875 L 6.390625 -10.5625 L 11.453125 -10.5625 L 11.453125 -6.90625 L 6.390625 -6.90625 L 6.390625 -3.71875 L 11.84375 -3.71875 Z M 11.84375 0 "/></g></g></g><g fill="#5ce1e6" fill-opacity="1"><g transform="translate(269.580102, 297.956172)"><g><path d="M 17.90625 0 L 11.921875 0 L 5.75 -11.890625 L 5.640625 -11.890625 C 5.796875 -10.023438 5.875 -8.597656 5.875 -7.609375 L 5.875 0 L 1.828125 0 L 1.828125 -16.890625 L 7.78125 -16.890625 L 13.9375 -5.15625 L 14 -5.15625 C 13.894531 -6.851562 13.84375 -8.21875 13.84375 -9.25 L 13.84375 -16.890625 L 17.90625 -16.890625 Z M 17.90625 0 "/></g></g></g><g fill="#5ce1e6" fill-opacity="1"><g transform="translate(296.150878, 297.956172)"><g><path d="M 9.28125 0 L 4.71875 0 L 4.71875 -13.15625 L 0.59375 -13.15625 L 0.59375 -16.890625 L 13.390625 -16.890625 L 13.390625 -13.15625 L 9.28125 -13.15625 Z M 9.28125 0 "/></g></g></g></svg>